# AST/ASF file generated using VICON BodyLanguage
# -----------------------------------------------
:version 1.10
:name VICON
:units
  mass 1.0
  length 0.45
  angle deg
:documentation
   .ast/.asf automatically generated from VICON data using
   VICON BodyBuilder and BodyLanguage model FoxedUp or BRILLIANT.MOD
:root
   order TX TY TZ RX RY RZ
   axis XYZ
   position 0 0 0  
   orientation 0 0 0 
:bonedata
  begin
     id 1 
     name lhipjoint
     direction 0.682418 -0.694059 0.22932 
     length 2.25561 
     axis 0 0 0  XYZ
  end
  begin
     id 2 
     name lfemur
     direction 0.34202 -0.939693 0  
     length 6.96448  
     axis 0 0 20  XYZ
    dof rx ry rz
    limits (-160.0 20.0)
           (-70.0 70.0)
           (-60.0 70.0)
  end
  begin
     id 3 
     name ltibia
     direction 0.34202 -0.939693 0   
     length 6.88553   
     axis 0 0 20   XYZ
    dof rx
    limits (-10.0 170.0)
  end
  begin
     id 4 
     name lfoot
     direction 0.0723587 -0.198804 0.977364   
     length 1.88518   
     axis -90 7.62852e-016 20   XYZ
    dof rx rz
    limits (-45.0 90.0)
           (-70.0 20.0)
  end
  begin
     id 5 
     name ltoes
     direction 1.53558e-011 -4.21962e-011 1   
     length 0.952124   
     axis -90 7.62852e-016 20   XYZ
    dof rx
    limits (-90.0 20.0)
  end
  begin
     id 6 
     name rhipjoint
     direction -0.657603 -0.71533 0.236348   
     length 2.18854  
     axis 0 0 0  XYZ 
  end
  begin
     id 7 
     name rfemur
     direction -0.34202 -0.939693 0   
     length 6.86686   
     axis 0 0 -20   XYZ
    dof rx ry rz
    limits (-160.0 20.0)
           (-70.0 70.0)
           (-70.0 60.0)
  end
  begin
     id 8 
     name rtibia
     direction -0.34202 -0.939693 0   
     length 6.59503   
     axis 0 0 -20   XYZ
    dof rx
    limits (-10.0 170.0)
 end
 begin
     id 9 
     name rfoot
     direction -0.101977 -0.280179 0.954516   
     length 1.93723  
     axis -90 -7.62852e-016 -20   XYZ
    dof rx rz
    limits (-45.0 90.0)
           (-20.0 70.0)
  end
  begin
     id 10 
     name rtoes
     direction -1.53564e-011 -4.21897e-011 1   
     length 0.970315   
     axis -90 -7.62852e-016 -20   XYZ
    dof rx
    limits (-90.0 20.0)
  end
  begin
     id 11 
     name lowerback
     direction -0.0339559 0.999421 -0.00235966   
     length 1.88543   
     axis 0 0 0   XYZ
    dof rx ry rz
    limits (-20.0 45.0)
           (-30.0 30.0)
           (-30.0 30.0)
  end
  begin
     id 12 
     name upperback
     direction 0.00401003 0.999739 0.0224689   
     length 1.8856   
     axis 0 0 0   XYZ
    dof rx ry rz
    limits (-20.0 45.0)
           (-30.0 30.0)
           (-30.0 30.0)
  end
  begin
     id 13 
     name thorax
     direction 0.0198619 0.999546 0.0226536   
     length 1.88352   
     axis 0 0 0   XYZ
    dof rx ry rz
    limits (-20.0 45.0)
           (-30.0 30.0)
           (-30.0 30.0)
  end
  begin
     id 14 
     name lowerneck
     direction -0.0461848 0.998632 0.0245198   
     length 1.34895   
     axis 0 0 0   XYZ
    dof rx ry rz
    limits (-20.0 45.0)
           (-30.0 30.0)
           (-30.0 30.0)
  end
  begin
     id 15 
     name upperneck
     direction -0.0180627 0.994724 -0.100984   
     length 1.35214   
     axis 0 0 0   XYZ
    dof rx ry rz
    limits (-20.0 45.0)
           (-30.0 30.0)
           (-30.0 30.0)
  end
  begin
     id 16
     name head
     direction -0.00374772 0.999293 -0.037403  
     length 1.3568  
     axis 0 0 0   XYZ
    dof rx ry rz
    limits (-20.0 45.0)
           (-30.0 30.0)
           (-30.0 30.0)
  end
  begin
     id 17 
     name lclavicle
     direction 0.971773 0.191119 0.138311  
     length 2.84954  
     axis 0 0 0   XYZ
    dof ry rz
    limits (-20.0 10.0)
           (0.0 20.0)
  end
  begin
     id 18 
     name lhumerus
     direction 1 -4.4897e-011 -2.43761e-027   
     length 4.40919   
     axis 180 -30 -90   XYZ
    dof rx ry rz
    limits (-60.0 90.0)
           (-90.0 90.0)
           (-90.0 90.0)
  end
  begin
     id 19
     name lradius
     direction 1 -4.4896e-011 -9.1621e-027   
     length 3.03857   
     axis 180 -30 -90   XYZ
    dof rx
    limits (-10.0 170.0)
  end
  begin
     id 20
     name lwrist
     direction 1 -4.4896e-011 -1.41363e-026   
     length 1.51928   
     axis 1.07133e-014 90 90   XYZ
    dof ry
    limits (-180.0 0.0)
 end
  begin
     id 21 
     name lhand
     direction 1 -4.48978e-011 -2.82725e-026   
     length 0.523208   
     axis 1.80403e-014 90 90   XYZ
    dof rx rz
    limits (-90.0 90.0)
           (-45.0 45.0)
  end
  begin
     id 22 
     name lfingers
     direction 1 -4.48977e-011 -5.6545e-026   
     length 0.421824   
     axis 3.60806e-014 90 90   XYZ
    dof rx
    limits (0.0 90.0)
  end
  begin
     id 23
     name lthumb
     direction 0.707107 -6.34962e-011 0.707107   
     length 0.605657   
     axis -90 45 2.85299e-015   XYZ
    dof rx rz
    limits (-45.0 45.0)
           (-45.0 45.0)
  end
  begin
     id 24 
     name rclavicle
     direction -0.957247 0.24311 0.156766   
     length 3.12406  
     axis 0 0 0   XYZ 
    dof ry rz
    limits (-10.0 20.0)
           (-20.0 0.0)
  end
  begin
     id 25 
     name rhumerus
     direction -1 -4.48964e-011 -1.70632e-027  
     length 4.61969   
     axis 180 30 90   XYZ
    dof rx ry rz
    limits (-90.0 60.0)
           (-90.0 90.0)
           (-90.0 90.0)
  end
  begin
     id 26 
     name rradius
     direction -1 -4.48966e-011 -6.60395e-027   
     length 3.09382   
     axis 180 30 90   XYZ
    dof rx
    limits (-10.0 170.0)
  end
  begin
     id 27 
     name rwrist
     direction -1 -4.48963e-011 -1.41363e-026   
     length 1.54691   
     axis 1.07133e-014 -90 -90   XYZ
    dof ry
    limits (-180.0 0.0)
  end
  begin
     id 28
     name rhand
     direction -1 -4.49013e-011 -2.82725e-026   
     length 0.500896   
     axis 1.80403e-014 -90 -90   XYZ
    dof rx rz
    limits (-90.0 90.0)
           (-45.0 45.0)
  end
  begin
     id 29
     name rfingers
     direction -1 -4.48902e-011 -5.6545e-026   
     length 0.403835   
     axis 3.60806e-014 -90 -90   XYZ
    dof rx
    limits (0.0 90.0)
  end
  begin
     id 30
     name rthumb
     direction -0.707107 -6.34953e-011 0.707107   
     length 0.579829   
     axis -90 -45 -2.85299e-015   XYZ
    dof rx rz
    limits (-45.0 45.0)
           (-45.0 45.0)
  end
:hierarchy
  begin
    root lhipjoint rhipjoint lowerback
    lhipjoint lfemur
    lfemur ltibia
    ltibia lfoot
    lfoot ltoes
    rhipjoint rfemur
    rfemur rtibia
    rtibia rfoot
    rfoot rtoes
    lowerback upperback
    upperback thorax
    thorax lowerneck lclavicle rclavicle
    lowerneck upperneck
    upperneck head
    lclavicle lhumerus
    lhumerus lradius
    lradius lwrist
    lwrist lhand lthumb
    lhand lfingers
    rclavicle rhumerus
    rhumerus rradius
    rradius rwrist
    rwrist rhand rthumb
    rhand rfingers
  end

#!OML:ASF E:\madness\Project 1\Capture day 1\Session 1\Female1.ASF
:FULLY-SPECIFIED
:DEGREES
901
root 29.316 16.1405 -0.414862 -134.392 -85.4153 139.96
lowerback -2.27184 -0.134635 -4.51658
upperback -1.38503 -0.110139 1.0762
thorax -0.140399 -0.0302696 3.64012
lowerneck 7.13076 16.7291 11.1906
upperneck 5.61282 23.7135 -15.6846
head 3.76257 11.8743 -5.57351
rclavicle -1.61513e-015 -5.1684e-015
rhumerus -49.151 -4.73815 -77.953
rradius 62.8757
rwrist 9.23412
rhand -17.9999 -33.1317
rfingers 7.12502
rthumb 8.27038 -62.9498
lclavicle -1.61513e-015 -5.1684e-015
lhumerus -4.63338 -37.1002 93.4619
lradius 66.4952
lwrist -20.5753
lhand -22.9864 -26.2151
lfingers 7.12502
lthumb 3.4562 3.73665
rfemur -6.72246 9.58163 21.2738
rtibia 21.6726
rfoot -22.1049 -19.9866
rtoes 12.8993
lfemur -30.9371 -10.8396 -9.51033
ltibia 37.7413
lfoot -4.55744 7.65178
ltoes 15.1442
902
root 29.3358 16.1575 -0.436352 -133.152 -85.3551 138.71
lowerback -2.38601 -0.10364 -4.53584
upperback -1.56564 -0.0690993 1.01098
thorax -0.26645 -0.00452723 3.58448
lowerneck 7.0573 16.5114 11.0889
upperneck 5.77714 23.4105 -15.5454
head 3.75275 11.7148 -5.54283
rclavicle -6.33626e-016 -1.23246e-014
rhumerus -49.1724 -4.78706 -78.2336
rradius 62.3316
rwrist 9.20245
rhand -13.3553 -37.7751
rfingers 7.12502
rthumb 12.7507 -67.3658
lclavicle -6.33626e-016 -1.23246e-014
lhumerus -5.61301 -36.8755 93.9799
lradius 66.5312
lwrist -20.8395
lhand -22.8287 -26.7817
lfingers 7.12502
lthumb 3.60852 3.1675
rfemur -6.67791 9.75512 21.2515
rtibia 21.4021
rfoot -21.7469 -20.3515
rtoes 11.1556
lfemur -30.888 -10.5253 -10.0178
ltibia 38.7713
lfoot -5.25917 7.23615
ltoes 18.1729
903
root 29.3605 16.1629 -0.454574 -129.749 -85.4324 135.411
lowerback -2.43755 -0.188899 -4.63279
upperback -1.8534 -0.188522 0.989786
thorax -0.522692 -0.0537188 3.61507
lowerneck 6.69416 16.438 10.7214
upperneck 6.61076 23.2927 -14.8474
head 3.91921 11.6143 -5.2528
rclavicle -1.48467e-015 -2.78299e-015
rhumerus -49.2362 -4.89061 -78.2538
rradius 61.257
rwrist 9.03951
rhand -13.221 -37.8159
rfingers 7.12502
rthumb 12.8802 -67.3984
lclavicle -1.48467e-015 -2.78299e-015
lhumerus -6.67025 -36.6045 94.5296
lradius 66.5955
lwrist -21.0796
lhand -22.578 -26.6615
lfingers 7.12502
lthumb 3.8506 3.28341
rfemur -6.75297 9.86814 21.2034
rtibia 21.1094
rfoot -21.3122 -20.8848
rtoes 9.51597
lfemur -31.0285 -10.3522 -10.4864
ltibia 39.7681
lfoot -5.74695 6.55779
ltoes 17.995
904
root 29.3801 16.1638 -0.470905 -127.419 -85.4148 133.107
lowerback -2.57431 -0.255241 -4.73379
upperback -2.00304 -0.27454 0.955841
thorax -0.592076 -0.0926549 3.63511
lowerneck 6.33013 16.3091 10.1992
upperneck 6.88699 23.0456 -14.2746
head 3.90029 11.4655 -5.01352
rclavicle -2.29845e-016 3.57812e-015
rhumerus -49.1399 -4.97985 -78.3319
rradius 60.2407
rwrist 8.75828
rhand -13.2114 -36.6555
rfingers 7.12502
rthumb 12.8894 -66.2374
lclavicle -2.29845e-016 3.57812e-015
lhumerus -7.44731 -36.4419 94.8419
lradius 66.6497
lwrist -21.065
lhand -22.5504 -26.1033
lfingers 7.12502
lthumb 3.87725 3.84117
rfemur -6.76362 10.2044 21.1336
rtibia 21.0044
rfoot -21.2042 -21.2611
rtoes 9.75841
lfemur -30.9193 -10.1768 -10.9808
ltibia 40.696
lfoot -6.29544 5.92501
ltoes 16.8485
905
root 29.3974 16.1672 -0.489147 -125.762 -85.4161 131.436
lowerback -2.79332 -0.291599 -4.76403
upperback -2.10656 -0.316477 0.917083
thorax -0.572244 -0.113268 3.61063
lowerneck 6.40549 16.102 10.0981
upperneck 6.95286 22.7523 -14.1161
head 3.841 11.3219 -4.9917
rclavicle 6.51952e-015 -1.55052e-014
rhumerus -49.0779 -4.85996 -78.7528
rradius 59.9819
rwrist 8.25732
rhand -13.1412 -39.7139
rfingers 7.12502
rthumb 12.9571 -69.2916
lclavicle 6.51952e-015 -1.55052e-014
lhumerus -8.11161 -36.4237 95.1225
lradius 66.5308
lwrist -20.956
lhand -22.9782 -26.0086
lfingers 7.12502
lthumb 3.46414 3.94295
rfemur -6.80491 10.5925 21.1174
rtibia 21.1302
rfoot -21.6156 -21.3156
rtoes 12.1014
lfemur -30.6829 -9.98507 -11.4058
ltibia 41.4884
lfoot -7.04825 5.31863
ltoes 14.8146
906
root 29.4217 16.1658 -0.510484 -123.561 -85.6287 129.375
lowerback -2.90168 -0.355535 -4.71181
upperback -2.37062 -0.408309 0.933833
thorax -0.775135 -0.151869 3.59679
lowerneck 6.35635 15.8655 9.84075
upperneck 7.09906 22.4015 -13.8381
head 3.78834 11.14 -4.90806
rclavicle -1.35733e-015 3.97569e-016
rhumerus -49.1168 -5.04621 -78.9066
rradius 59.2901
rwrist 7.73551
rhand -13.1041 -41.5659
rfingers 7.12502
rthumb 12.9929 -71.1413
lclavicle -1.35733e-015 3.97569e-016
lhumerus -9.04389 -36.331 95.5824
lradius 66.4408
lwrist -20.9896
lhand -23.2719 -25.9829
lfingers 7.12502
lthumb 3.18053 3.97308
rfemur -7.10742 10.897 21.2707
rtibia 21.3908
rfoot -22.2693 -21.2088
rtoes 14.9418
lfemur -30.7305 -9.80791 -11.547
ltibia 42.1752
lfoot -7.65357 4.34258
ltoes 14.227
907
root 29.436 16.1628 -0.528529 -121.547 -85.5505 127.457
lowerback -3.11954 -0.37988 -4.8342
upperback -2.58032 -0.437601 0.858816
thorax -0.867071 -0.161537 3.58715
lowerneck 6.19504 15.597 9.40249
upperneck 7.22995 21.9765 -13.3815
head 3.70236 10.9169 -4.74817
rclavicle 1.22066e-014 -4.77083e-015
rhumerus -49.1662 -5.3449 -78.9668
rradius 58.3951
rwrist 7.21011
rhand -12.4756 -42.5906
rfingers 7.12502
rthumb 13.5986 -72.1264
lclavicle 1.22066e-014 -4.77083e-015
lhumerus -10.1246 -36.1268 96.0417
lradius 66.551
lwrist -20.9051
lhand -22.4497 -24.5493
lfingers 7.12502
lthumb 3.97449 5.3934
rfemur -7.37106 11.1329 21.1667
rtibia 21.681
rfoot -22.5761 -21.1457
rtoes 15.4132
lfemur -30.6125 -9.7026 -11.9341
ltibia 42.8216
lfoot -8.22522 3.47193
ltoes 15.4631
908
root 29.4549 16.1598 -0.542577 -119.667 -85.4474 125.729
lowerback -3.43698 -0.407371 -4.90947
upperback -2.73702 -0.465422 0.755039
thorax -0.849205 -0.175066 3.52027
lowerneck 5.84656 15.3397 9.17733
upperneck 7.86596 21.6053 -12.7736
head 3.81511 10.7067 -4.52963
rclavicle 9.98893e-015 -2.78299e-015
rhumerus -49.1364 -5.59915 -79.0557
rradius 57.4587
rwrist 6.79533
rhand -14.154 -38.3683
rfingers 7.12502
rthumb 11.9806 -68.0054
lclavicle 9.98893e-015 -2.78299e-015
lhumerus -10.8841 -36.0934 96.3226
lradius 66.5608
lwrist -20.6245
lhand -21.7152 -25.6964
lfingers 7.12502
lthumb 4.68373 4.23185
rfemur -7.72397 11.3378 21.0121
rtibia 21.9538
rfoot -22.8016 -21.2454
rtoes 15.6529
lfemur -30.5903 -9.59454 -12.3455
ltibia 43.4802
lfoot -8.74408 2.83354
ltoes 11.9495
909
root 29.4756 16.1502 -0.554328 -118.01 -85.4675 124.234
lowerback -3.72185 -0.441111 -4.90389
upperback -2.92231 -0.506157 0.717293
thorax -0.877876 -0.19424 3.47594
lowerneck 5.9246 15.0044 9.19803
upperneck 7.91912 21.1514 -12.7036
head 3.7609 10.4857 -4.55704
rclavicle -5.01931e-015 6.36111e-015
rhumerus -49.1917 -5.73545 -79.1258
rradius 56.6007
rwrist 6.53957
rhand -13.6436 -39.6656
rfingers 7.12502
rthumb 12.4728 -69.2734
lclavicle -5.01931e-015 6.36111e-015
lhumerus -11.6938 -36.0537 96.7191
lradius 66.5139
lwrist -20.6782
lhand -21.6755 -24.818
lfingers 7.12502
lthumb 4.72211 5.10934
rfemur -8.06986 11.3524 20.9975
rtibia 22.0773
rfoot -22.6182 -21.5789
rtoes 13.8062
lfemur -30.6273 -9.5377 -12.6038
ltibia 44.1294
lfoot -9.20132 2.13381
ltoes 11.444
